<svg width="16" height="16" viewBox="0 0 16 16" fill="none" xmlns="http://www.w3.org/2000/svg">
<g clip-path="url(#clip0_871_3626)">
<path d="M6.61436 2.9C7.06908 2.11241 7.29643 1.71861 7.59326 1.58645C7.85217 1.47118 8.14783 1.47118 8.40674 1.58645C8.70357 1.71861 8.93092 2.11241 9.38564 2.9L13.9756 10.85C14.4303 11.6376 14.6577 12.0314 14.6237 12.3545C14.5941 12.6364 14.4462 12.8924 14.217 13.059C13.9541 13.25 13.4994 13.25 12.5899 13.25H3.41006C2.50063 13.25 2.04592 13.25 1.78305 13.059C1.55377 12.8924 1.40594 12.6364 1.37631 12.3545C1.34235 12.0314 1.56971 11.6376 2.02442 10.85L6.61436 2.9Z" stroke="#3A81F7" stroke-width="1.5"/>
</g>
<defs>
<clipPath id="clip0_871_3626">
<rect width="16" height="16" fill="white"/>
</clipPath>
</defs>
</svg>
