<svg width="108" height="24" viewBox="0 0 108 24" fill="none" xmlns="http://www.w3.org/2000/svg">
<path d="M6.936 18.288C5.48 18.288 4.208 18.08 3.12 17.664C2.048 17.232 1.056 16.552 0.144 15.624L3.144 12.624C3.768 13.216 4.424 13.672 5.112 13.992C5.8 14.296 6.536 14.448 7.32 14.448C7.976 14.448 8.472 14.352 8.808 14.16C9.144 13.952 9.312 13.672 9.312 13.32C9.312 12.968 9.168 12.68 8.88 12.456C8.592 12.216 8.208 12.008 7.728 11.832C7.264 11.64 6.744 11.448 6.168 11.256C5.608 11.064 5.048 10.832 4.488 10.56C3.928 10.288 3.408 9.96 2.928 9.576C2.464 9.176 2.088 8.688 1.8 8.112C1.512 7.52 1.368 6.8 1.368 5.952C1.368 4.848 1.632 3.896 2.16 3.096C2.688 2.296 3.432 1.688 4.392 1.272C5.352 0.839999 6.48 0.623999 7.776 0.623999C9.056 0.623999 10.24 0.831999 11.328 1.248C12.432 1.648 13.344 2.224 14.064 2.976L11.04 5.976C10.512 5.464 9.984 5.088 9.456 4.848C8.928 4.592 8.352 4.464 7.728 4.464C7.232 4.464 6.832 4.544 6.528 4.704C6.24 4.864 6.096 5.104 6.096 5.424C6.096 5.76 6.24 6.04 6.528 6.264C6.816 6.472 7.192 6.664 7.656 6.84C8.136 7.016 8.656 7.2 9.216 7.392C9.792 7.584 10.36 7.816 10.92 8.088C11.48 8.344 11.992 8.68 12.456 9.096C12.936 9.496 13.32 10 13.608 10.608C13.896 11.216 14.04 11.952 14.04 12.816C14.04 14.56 13.416 15.912 12.168 16.872C10.936 17.816 9.192 18.288 6.936 18.288ZM23.265 18V11.376C23.265 10.912 23.129 10.56 22.857 10.32C22.601 10.064 22.273 9.936 21.873 9.936C21.601 9.936 21.353 9.992 21.129 10.104C20.921 10.216 20.753 10.384 20.625 10.608C20.513 10.816 20.457 11.072 20.457 11.376L18.633 10.56C18.633 9.6 18.841 8.776 19.257 8.088C19.689 7.4 20.273 6.872 21.009 6.504C21.761 6.136 22.609 5.952 23.553 5.952C24.401 5.952 25.153 6.144 25.809 6.528C26.481 6.896 27.009 7.408 27.393 8.064C27.777 8.704 27.969 9.448 27.969 10.296V18H23.265ZM15.753 18V6.192H20.457V18H15.753ZM34.8996 18.24C33.7956 18.24 32.8196 17.976 31.9716 17.448C31.1236 16.92 30.4596 16.2 29.9796 15.288C29.4996 14.36 29.2596 13.296 29.2596 12.096C29.2596 10.896 29.4996 9.832 29.9796 8.904C30.4596 7.976 31.1236 7.256 31.9716 6.744C32.8196 6.216 33.7956 5.952 34.8996 5.952C35.5876 5.952 36.2196 6.072 36.7956 6.312C37.3876 6.536 37.8756 6.856 38.2596 7.272C38.6596 7.688 38.9156 8.168 39.0276 8.712V15.48C38.9156 16.024 38.6596 16.504 38.2596 16.92C37.8756 17.336 37.3876 17.664 36.7956 17.904C36.2196 18.128 35.5876 18.24 34.8996 18.24ZM35.9556 14.112C36.5476 14.112 37.0196 13.928 37.3716 13.56C37.7396 13.176 37.9236 12.688 37.9236 12.096C37.9236 11.696 37.8436 11.352 37.6836 11.064C37.5236 10.76 37.2916 10.52 36.9876 10.344C36.6996 10.168 36.3636 10.08 35.9796 10.08C35.5956 10.08 35.2516 10.168 34.9476 10.344C34.6596 10.52 34.4276 10.76 34.2516 11.064C34.0756 11.368 33.9876 11.712 33.9876 12.096C33.9876 12.48 34.0676 12.824 34.2276 13.128C34.4036 13.432 34.6436 13.672 34.9476 13.848C35.2516 14.024 35.5876 14.112 35.9556 14.112ZM37.7796 18V14.832L38.4276 11.952L37.7796 9.096V6.192H42.3636V18H37.7796ZM50.604 18.288C49.324 18.288 48.172 18.024 47.148 17.496C46.124 16.968 45.316 16.24 44.724 15.312C44.132 14.368 43.836 13.304 43.836 12.12C43.836 10.92 44.132 9.856 44.724 8.928C45.332 7.984 46.148 7.248 47.172 6.72C48.212 6.176 49.38 5.904 50.676 5.904C51.604 5.904 52.436 6.048 53.172 6.336C53.924 6.624 54.62 7.064 55.26 7.656L52.308 10.608C52.1 10.416 51.868 10.272 51.612 10.176C51.356 10.08 51.044 10.032 50.676 10.032C50.292 10.032 49.94 10.12 49.62 10.296C49.316 10.456 49.068 10.688 48.876 10.992C48.684 11.296 48.588 11.656 48.588 12.072C48.588 12.488 48.684 12.856 48.876 13.176C49.068 13.48 49.324 13.72 49.644 13.896C49.964 14.072 50.308 14.16 50.676 14.16C51.092 14.16 51.436 14.096 51.708 13.968C51.98 13.84 52.22 13.664 52.428 13.44L55.38 16.392C54.692 17.032 53.972 17.512 53.22 17.832C52.468 18.136 51.596 18.288 50.604 18.288ZM64.3532 18L61.0652 11.784L64.3292 6.192H69.3932L65.1692 12.504L65.2892 10.968L69.6332 18H64.3532ZM56.7452 18V0.431999H61.4492V18H56.7452ZM77.5641 18.24C76.8601 18.24 76.1961 18.128 75.5721 17.904C74.9481 17.664 74.4201 17.336 73.9881 16.92C73.5561 16.504 73.2761 16.024 73.1481 15.48V8.952C73.2761 8.408 73.5561 7.912 73.9881 7.464C74.4201 7 74.9481 6.632 75.5721 6.36C76.1961 6.088 76.8601 5.952 77.5641 5.952C78.7321 5.952 79.7481 6.216 80.6121 6.744C81.4921 7.256 82.1721 7.976 82.6521 8.904C83.1481 9.832 83.3961 10.896 83.3961 12.096C83.3961 13.296 83.1481 14.36 82.6521 15.288C82.1721 16.2 81.4921 16.92 80.6121 17.448C79.7481 17.976 78.7321 18.24 77.5641 18.24ZM76.6761 14.112C77.0601 14.112 77.4041 14.024 77.7081 13.848C78.0121 13.672 78.2441 13.432 78.4041 13.128C78.5801 12.824 78.6681 12.48 78.6681 12.096C78.6681 11.696 78.5801 11.352 78.4041 11.064C78.2441 10.76 78.0121 10.52 77.7081 10.344C77.4201 10.168 77.0841 10.08 76.7001 10.08C76.3161 10.08 75.9721 10.168 75.6681 10.344C75.3801 10.504 75.1481 10.736 74.9721 11.04C74.8121 11.344 74.7321 11.696 74.7321 12.096C74.7321 12.48 74.8121 12.824 74.9721 13.128C75.1321 13.432 75.3561 13.672 75.6441 13.848C75.9481 14.024 76.2921 14.112 76.6761 14.112ZM70.2921 23.04V6.192H74.9961V9.096L74.2281 11.952L74.8761 14.832V23.04H70.2921ZM90.8925 18.288C89.5965 18.288 88.4365 18.024 87.4125 17.496C86.4045 16.952 85.6045 16.208 85.0125 15.264C84.4365 14.32 84.1485 13.256 84.1485 12.072C84.1485 10.888 84.4365 9.832 85.0125 8.904C85.5885 7.976 86.3805 7.248 87.3885 6.72C88.4125 6.176 89.5725 5.904 90.8685 5.904C92.1645 5.904 93.3165 6.176 94.3245 6.72C95.3325 7.248 96.1245 7.976 96.7005 8.904C97.2925 9.832 97.5885 10.888 97.5885 12.072C97.5885 13.256 97.3005 14.32 96.7245 15.264C96.1485 16.208 95.3565 16.952 94.3485 17.496C93.3405 18.024 92.1885 18.288 90.8925 18.288ZM90.8685 14.16C91.2685 14.16 91.6125 14.08 91.9005 13.92C92.2045 13.744 92.4365 13.504 92.5965 13.2C92.7565 12.88 92.8365 12.512 92.8365 12.096C92.8365 11.68 92.7485 11.32 92.5725 11.016C92.4125 10.696 92.1885 10.456 91.9005 10.296C91.6125 10.12 91.2685 10.032 90.8685 10.032C90.4845 10.032 90.1405 10.12 89.8365 10.296C89.5485 10.472 89.3165 10.72 89.1405 11.04C88.9805 11.344 88.9005 11.704 88.9005 12.12C88.9005 12.52 88.9805 12.88 89.1405 13.2C89.3165 13.504 89.5485 13.744 89.8365 13.92C90.1405 14.08 90.4845 14.16 90.8685 14.16ZM100.469 18V1.344H105.173V18H100.469ZM97.9493 10.032V6.192H107.693V10.032H97.9493Z" fill="#212131"/>
</svg>
