<svg width="225" height="48" viewBox="0 0 225 48" fill="none" xmlns="http://www.w3.org/2000/svg">
<path d="M14.45 37.6C11.4167 37.6 8.76667 37.1667 6.5 36.3C4.26667 35.4 2.2 33.9833 0.3 32.05L6.55 25.8C7.85 27.0333 9.21667 27.9833 10.65 28.65C12.0833 29.2833 13.6167 29.6 15.25 29.6C16.6167 29.6 17.65 29.4 18.35 29C19.05 28.5667 19.4 27.9833 19.4 27.25C19.4 26.5167 19.1 25.9167 18.5 25.45C17.9 24.95 17.1 24.5167 16.1 24.15C15.1333 23.75 14.05 23.35 12.85 22.95C11.6833 22.55 10.5167 22.0667 9.35 21.5C8.18333 20.9333 7.1 20.25 6.1 19.45C5.13333 18.6167 4.35 17.6 3.75 16.4C3.15 15.1667 2.85 13.6667 2.85 11.9C2.85 9.6 3.4 7.61666 4.5 5.95C5.6 4.28333 7.15 3.01667 9.15 2.15C11.15 1.25 13.5 0.799998 16.2 0.799998C18.8667 0.799998 21.3333 1.23333 23.6 2.1C25.9 2.93333 27.8 4.13333 29.3 5.7L23 11.95C21.9 10.8833 20.8 10.1 19.7 9.6C18.6 9.06667 17.4 8.8 16.1 8.8C15.0667 8.8 14.2333 8.96667 13.6 9.3C13 9.63333 12.7 10.1333 12.7 10.8C12.7 11.5 13 12.0833 13.6 12.55C14.2 12.9833 14.9833 13.3833 15.95 13.75C16.95 14.1167 18.0333 14.5 19.2 14.9C20.4 15.3 21.5833 15.7833 22.75 16.35C23.9167 16.8833 24.9833 17.5833 25.95 18.45C26.95 19.2833 27.75 20.3333 28.35 21.6C28.95 22.8667 29.25 24.4 29.25 26.2C29.25 29.8333 27.95 32.65 25.35 34.65C22.7833 36.6167 19.15 37.6 14.45 37.6ZM48.4688 37V23.2C48.4688 22.2333 48.1854 21.5 47.6188 21C47.0854 20.4667 46.4021 20.2 45.5688 20.2C45.0021 20.2 44.4854 20.3167 44.0188 20.55C43.5854 20.7833 43.2354 21.1333 42.9688 21.6C42.7354 22.0333 42.6188 22.5667 42.6188 23.2L38.8188 21.5C38.8188 19.5 39.2521 17.7833 40.1188 16.35C41.0188 14.9167 42.2354 13.8167 43.7688 13.05C45.3354 12.2833 47.1021 11.9 49.0688 11.9C50.8354 11.9 52.4021 12.3 53.7688 13.1C55.1688 13.8667 56.2688 14.9333 57.0688 16.3C57.8688 17.6333 58.2688 19.1833 58.2688 20.95V37H48.4688ZM32.8188 37V12.4H42.6188V37H32.8188ZM72.7074 37.5C70.4074 37.5 68.3741 36.95 66.6074 35.85C64.8408 34.75 63.4574 33.25 62.4574 31.35C61.4574 29.4167 60.9574 27.2 60.9574 24.7C60.9574 22.2 61.4574 19.9833 62.4574 18.05C63.4574 16.1167 64.8408 14.6167 66.6074 13.55C68.3741 12.45 70.4074 11.9 72.7074 11.9C74.1408 11.9 75.4574 12.15 76.6574 12.65C77.8908 13.1167 78.9074 13.7833 79.7074 14.65C80.5408 15.5167 81.0741 16.5167 81.3074 17.65V31.75C81.0741 32.8833 80.5408 33.8833 79.7074 34.75C78.9074 35.6167 77.8908 36.3 76.6574 36.8C75.4574 37.2667 74.1408 37.5 72.7074 37.5ZM74.9074 28.9C76.1408 28.9 77.1241 28.5167 77.8574 27.75C78.6241 26.95 79.0074 25.9333 79.0074 24.7C79.0074 23.8667 78.8408 23.15 78.5074 22.55C78.1741 21.9167 77.6908 21.4167 77.0574 21.05C76.4574 20.6833 75.7574 20.5 74.9574 20.5C74.1574 20.5 73.4408 20.6833 72.8074 21.05C72.2074 21.4167 71.7241 21.9167 71.3574 22.55C70.9908 23.1833 70.8074 23.9 70.8074 24.7C70.8074 25.5 70.9741 26.2167 71.3074 26.85C71.6741 27.4833 72.1741 27.9833 72.8074 28.35C73.4408 28.7167 74.1408 28.9 74.9074 28.9ZM78.7074 37V30.4L80.0574 24.4L78.7074 18.45V12.4H88.2574V37H78.7074ZM105.425 37.6C102.758 37.6 100.358 37.05 98.225 35.95C96.0917 34.85 94.4083 33.3333 93.175 31.4C91.9417 29.4333 91.325 27.2167 91.325 24.75C91.325 22.25 91.9417 20.0333 93.175 18.1C94.4417 16.1333 96.1417 14.6 98.275 13.5C100.442 12.3667 102.875 11.8 105.575 11.8C107.508 11.8 109.242 12.1 110.775 12.7C112.342 13.3 113.792 14.2167 115.125 15.45L108.975 21.6C108.542 21.2 108.058 20.9 107.525 20.7C106.992 20.5 106.342 20.4 105.575 20.4C104.775 20.4 104.042 20.5833 103.375 20.95C102.742 21.2833 102.225 21.7667 101.825 22.4C101.425 23.0333 101.225 23.7833 101.225 24.65C101.225 25.5167 101.425 26.2833 101.825 26.95C102.225 27.5833 102.758 28.0833 103.425 28.45C104.092 28.8167 104.808 29 105.575 29C106.442 29 107.158 28.8667 107.725 28.6C108.292 28.3333 108.792 27.9667 109.225 27.5L115.375 33.65C113.942 34.9833 112.442 35.9833 110.875 36.65C109.308 37.2833 107.492 37.6 105.425 37.6ZM134.069 37L127.219 24.05L134.019 12.4H144.569L135.769 25.55L136.019 22.35L145.069 37H134.069ZM118.219 37V0.399997H128.019V37H118.219ZM161.592 37.5C160.125 37.5 158.742 37.2667 157.442 36.8C156.142 36.3 155.042 35.6167 154.142 34.75C153.242 33.8833 152.658 32.8833 152.392 31.75V18.15C152.658 17.0167 153.242 15.9833 154.142 15.05C155.042 14.0833 156.142 13.3167 157.442 12.75C158.742 12.1833 160.125 11.9 161.592 11.9C164.025 11.9 166.142 12.45 167.942 13.55C169.775 14.6167 171.192 16.1167 172.192 18.05C173.225 19.9833 173.742 22.2 173.742 24.7C173.742 27.2 173.225 29.4167 172.192 31.35C171.192 33.25 169.775 34.75 167.942 35.85C166.142 36.95 164.025 37.5 161.592 37.5ZM159.742 28.9C160.542 28.9 161.258 28.7167 161.892 28.35C162.525 27.9833 163.008 27.4833 163.342 26.85C163.708 26.2167 163.892 25.5 163.892 24.7C163.892 23.8667 163.708 23.15 163.342 22.55C163.008 21.9167 162.525 21.4167 161.892 21.05C161.292 20.6833 160.592 20.5 159.792 20.5C158.992 20.5 158.275 20.6833 157.642 21.05C157.042 21.3833 156.558 21.8667 156.192 22.5C155.858 23.1333 155.692 23.8667 155.692 24.7C155.692 25.5 155.858 26.2167 156.192 26.85C156.525 27.4833 156.992 27.9833 157.592 28.35C158.225 28.7167 158.942 28.9 159.742 28.9ZM146.442 47.5V12.4H156.242V18.45L154.642 24.4L155.992 30.4V47.5H146.442ZM189.359 37.6C186.659 37.6 184.243 37.05 182.109 35.95C180.009 34.8167 178.343 33.2667 177.109 31.3C175.909 29.3333 175.309 27.1167 175.309 24.65C175.309 22.1833 175.909 19.9833 177.109 18.05C178.309 16.1167 179.959 14.6 182.059 13.5C184.193 12.3667 186.609 11.8 189.309 11.8C192.009 11.8 194.409 12.3667 196.509 13.5C198.609 14.6 200.259 16.1167 201.459 18.05C202.693 19.9833 203.309 22.1833 203.309 24.65C203.309 27.1167 202.709 29.3333 201.509 31.3C200.309 33.2667 198.659 34.8167 196.559 35.95C194.459 37.05 192.059 37.6 189.359 37.6ZM189.309 29C190.143 29 190.859 28.8333 191.459 28.5C192.093 28.1333 192.576 27.6333 192.909 27C193.243 26.3333 193.409 25.5667 193.409 24.7C193.409 23.8333 193.226 23.0833 192.859 22.45C192.526 21.7833 192.059 21.2833 191.459 20.95C190.859 20.5833 190.143 20.4 189.309 20.4C188.509 20.4 187.793 20.5833 187.159 20.95C186.559 21.3167 186.076 21.8333 185.709 22.5C185.376 23.1333 185.209 23.8833 185.209 24.75C185.209 25.5833 185.376 26.3333 185.709 27C186.076 27.6333 186.559 28.1333 187.159 28.5C187.793 28.8333 188.509 29 189.309 29ZM209.311 37V2.3H219.111V37H209.311ZM204.061 20.4V12.4H224.361V20.4H204.061Z" fill="#212131"/>
</svg>
